# Tiled2Unity generated file. Do not modify by hand.
# Wavefront file for 'Pueblo_mesh_0003.obj'

# Vertices (Count = 548)
v -2 -3 0
v -3 -3 0
v -3 -2 0
v -2 -2 0
v -3 -3 0
v -4 -3 0
v -4 -2 0
v -3 -2 0
v -4 -3 0
v -5 -3 0
v -5 -2 0
v -4 -2 0
v -5 -3 0
v -6 -3 0
v -6 -2 0
v -5 -2 0
v -6 -3 0
v -7 -3 0
v -7 -2 0
v -6 -2 0
v -7 -3 0
v -8 -3 0
v -8 -2 0
v -7 -2 0
v -8 -3 0
v -9 -3 0
v -9 -2 0
v -8 -2 0
v -9 -3 0
v -10 -3 0
v -10 -2 0
v -9 -2 0
v -10 -3 0
v -11 -3 0
v -11 -2 0
v -10 -2 0
v -11 -3 0
v -12 -3 0
v -12 -2 0
v -11 -2 0
v -12 -3 0
v -13 -3 0
v -13 -2 0
v -12 -2 0
v -13 -3 0
v -14 -3 0
v -14 -2 0
v -13 -2 0
v -14 -3 0
v -15 -3 0
v -15 -2 0
v -14 -2 0
v -2 -4 0
v -3 -4 0
v -3 -3 0
v -2 -3 0
v -3 -4 0
v -4 -4 0
v -4 -3 0
v -3 -3 0
v -4 -4 0
v -5 -4 0
v -5 -3 0
v -4 -3 0
v -5 -4 0
v -6 -4 0
v -6 -3 0
v -5 -3 0
v -6 -4 0
v -7 -4 0
v -7 -3 0
v -6 -3 0
v -7 -4 0
v -8 -4 0
v -8 -3 0
v -7 -3 0
v -8 -4 0
v -9 -4 0
v -9 -3 0
v -8 -3 0
v -9 -4 0
v -10 -4 0
v -10 -3 0
v -9 -3 0
v -10 -4 0
v -11 -4 0
v -11 -3 0
v -10 -3 0
v -11 -4 0
v -12 -4 0
v -12 -3 0
v -11 -3 0
v -12 -4 0
v -13 -4 0
v -13 -3 0
v -12 -3 0
v -13 -4 0
v -14 -4 0
v -14 -3 0
v -13 -3 0
v -14 -4 0
v -15 -4 0
v -15 -3 0
v -14 -3 0
v -4 -5 0
v -5 -5 0
v -5 -4 0
v -4 -4 0
v -5 -5 0
v -6 -5 0
v -6 -4 0
v -5 -4 0
v -6 -5 0
v -7 -5 0
v -7 -4 0
v -6 -4 0
v -7 -5 0
v -8 -5 0
v -8 -4 0
v -7 -4 0
v -8 -5 0
v -9 -5 0
v -9 -4 0
v -8 -4 0
v -9 -5 0
v -10 -5 0
v -10 -4 0
v -9 -4 0
v -10 -5 0
v -11 -5 0
v -11 -4 0
v -10 -4 0
v -11 -5 0
v -12 -5 0
v -12 -4 0
v -11 -4 0
v -12 -5 0
v -13 -5 0
v -13 -4 0
v -12 -4 0
v -13 -5 0
v -14 -5 0
v -14 -4 0
v -13 -4 0
v -14 -5 0
v -15 -5 0
v -15 -4 0
v -14 -4 0
v -4 -6 0
v -5 -6 0
v -5 -5 0
v -4 -5 0
v -5 -6 0
v -6 -6 0
v -6 -5 0
v -5 -5 0
v -9 -6 0
v -10 -6 0
v -10 -5 0
v -9 -5 0
v -10 -6 0
v -11 -6 0
v -11 -5 0
v -10 -5 0
v -11 -6 0
v -12 -6 0
v -12 -5 0
v -11 -5 0
v -12 -6 0
v -13 -6 0
v -13 -5 0
v -12 -5 0
v -13 -6 0
v -14 -6 0
v -14 -5 0
v -13 -5 0
v -14 -6 0
v -15 -6 0
v -15 -5 0
v -14 -5 0
v -15 -6 0
v -16 -6 0
v -16 -5 0
v -15 -5 0
v -4 -7 0
v -5 -7 0
v -5 -6 0
v -4 -6 0
v -5 -7 0
v -6 -7 0
v -6 -6 0
v -5 -6 0
v -6 -7 0
v -7 -7 0
v -7 -6 0
v -6 -6 0
v -7 -7 0
v -8 -7 0
v -8 -6 0
v -7 -6 0
v -8 -7 0
v -9 -7 0
v -9 -6 0
v -8 -6 0
v -9 -7 0
v -10 -7 0
v -10 -6 0
v -9 -6 0
v -10 -7 0
v -11 -7 0
v -11 -6 0
v -10 -6 0
v -11 -7 0
v -12 -7 0
v -12 -6 0
v -11 -6 0
v -12 -7 0
v -13 -7 0
v -13 -6 0
v -12 -6 0
v -13 -7 0
v -14 -7 0
v -14 -6 0
v -13 -6 0
v -14 -7 0
v -15 -7 0
v -15 -6 0
v -14 -6 0
v -15 -7 0
v -16 -7 0
v -16 -6 0
v -15 -6 0
v -4 -8 0
v -5 -8 0
v -5 -7 0
v -4 -7 0
v -6 -8 0
v -7 -8 0
v -7 -7 0
v -6 -7 0
v -7 -8 0
v -8 -8 0
v -8 -7 0
v -7 -7 0
v -8 -8 0
v -9 -8 0
v -9 -7 0
v -8 -7 0
v -15 -8 0
v -16 -8 0
v -16 -7 0
v -15 -7 0
v -16 -8 0
v -17 -8 0
v -17 -7 0
v -16 -7 0
v -17 -8 0
v -18 -8 0
v -18 -7 0
v -17 -7 0
v -4 -9 0
v -5 -9 0
v -5 -8 0
v -4 -8 0
v -6 -9 0
v -7 -9 0
v -7 -8 0
v -6 -8 0
v -7 -9 0
v -8 -9 0
v -8 -8 0
v -7 -8 0
v -8 -9 0
v -9 -9 0
v -9 -8 0
v -8 -8 0
v -10 -9 0
v -11 -9 0
v -11 -8 0
v -10 -8 0
v -14 -9 0
v -15 -9 0
v -15 -8 0
v -14 -8 0
v -15 -9 0
v -16 -9 0
v -16 -8 0
v -15 -8 0
v -16 -9 0
v -17 -9 0
v -17 -8 0
v -16 -8 0
v -17 -9 0
v -18 -9 0
v -18 -8 0
v -17 -8 0
v -4 -10 0
v -5 -10 0
v -5 -9 0
v -4 -9 0
v -5 -10 0
v -6 -10 0
v -6 -9 0
v -5 -9 0
v -6 -10 0
v -7 -10 0
v -7 -9 0
v -6 -9 0
v -7 -10 0
v -8 -10 0
v -8 -9 0
v -7 -9 0
v -8 -10 0
v -9 -10 0
v -9 -9 0
v -8 -9 0
v -10 -10 0
v -11 -10 0
v -11 -9 0
v -10 -9 0
v -11 -10 0
v -12 -10 0
v -12 -9 0
v -11 -9 0
v -12 -10 0
v -13 -10 0
v -13 -9 0
v -12 -9 0
v -13 -10 0
v -14 -10 0
v -14 -9 0
v -13 -9 0
v -14 -10 0
v -15 -10 0
v -15 -9 0
v -14 -9 0
v -15 -10 0
v -16 -10 0
v -16 -9 0
v -15 -9 0
v -4 -11 0
v -5 -11 0
v -5 -10 0
v -4 -10 0
v -5 -11 0
v -6 -11 0
v -6 -10 0
v -5 -10 0
v -6 -11 0
v -7 -11 0
v -7 -10 0
v -6 -10 0
v -7 -11 0
v -8 -11 0
v -8 -10 0
v -7 -10 0
v -8 -11 0
v -9 -11 0
v -9 -10 0
v -8 -10 0
v -9 -11 0
v -10 -11 0
v -10 -10 0
v -9 -10 0
v -10 -11 0
v -11 -11 0
v -11 -10 0
v -10 -10 0
v -11 -11 0
v -12 -11 0
v -12 -10 0
v -11 -10 0
v -12 -11 0
v -13 -11 0
v -13 -10 0
v -12 -10 0
v -13 -11 0
v -14 -11 0
v -14 -10 0
v -13 -10 0
v -14 -11 0
v -15 -11 0
v -15 -10 0
v -14 -10 0
v -15 -11 0
v -16 -11 0
v -16 -10 0
v -15 -10 0
v -16 -11 0
v -17 -11 0
v -17 -10 0
v -16 -10 0
v -11 -12 0
v -12 -12 0
v -12 -11 0
v -11 -11 0
v -12 -12 0
v -13 -12 0
v -13 -11 0
v -12 -11 0
v -13 -12 0
v -14 -12 0
v -14 -11 0
v -13 -11 0
v -3 -13 0
v -4 -13 0
v -4 -12 0
v -3 -12 0
v -4 -13 0
v -5 -13 0
v -5 -12 0
v -4 -12 0
v -11 -13 0
v -12 -13 0
v -12 -12 0
v -11 -12 0
v -13 -13 0
v -14 -13 0
v -14 -12 0
v -13 -12 0
v -14 -13 0
v -15 -13 0
v -15 -12 0
v -14 -12 0
v -15 -13 0
v -16 -13 0
v -16 -12 0
v -15 -12 0
v -3 -14 0
v -4 -14 0
v -4 -13 0
v -3 -13 0
v -4 -14 0
v -5 -14 0
v -5 -13 0
v -4 -13 0
v -14 -14 0
v -15 -14 0
v -15 -13 0
v -14 -13 0
v -15 -14 0
v -16 -14 0
v -16 -13 0
v -15 -13 0
v -14 -15 0
v -15 -15 0
v -15 -14 0
v -14 -14 0
v -15 -15 0
v -16 -15 0
v -16 -14 0
v -15 -14 0
v -12 -16 0
v -13 -16 0
v -13 -15 0
v -12 -15 0
v -13 -16 0
v -14 -16 0
v -14 -15 0
v -13 -15 0
v -7 -17 0
v -8 -17 0
v -8 -16 0
v -7 -16 0
v -8 -17 0
v -9 -17 0
v -9 -16 0
v -8 -16 0
v -9 -17 0
v -10 -17 0
v -10 -16 0
v -9 -16 0
v -10 -17 0
v -11 -17 0
v -11 -16 0
v -10 -16 0
v -11 -17 0
v -12 -17 0
v -12 -16 0
v -11 -16 0
v -12 -17 0
v -13 -17 0
v -13 -16 0
v -12 -16 0
v -13 -17 0
v -14 -17 0
v -14 -16 0
v -13 -16 0
v -7 -18 0
v -8 -18 0
v -8 -17 0
v -7 -17 0
v -8 -18 0
v -9 -18 0
v -9 -17 0
v -8 -17 0
v -9 -18 0
v -10 -18 0
v -10 -17 0
v -9 -17 0
v -10 -18 0
v -11 -18 0
v -11 -17 0
v -10 -17 0
v -11 -18 0
v -12 -18 0
v -12 -17 0
v -11 -17 0
v -7 -19 0
v -8 -19 0
v -8 -18 0
v -7 -18 0
v -8 -19 0
v -9 -19 0
v -9 -18 0
v -8 -18 0
v -9 -19 0
v -10 -19 0
v -10 -18 0
v -9 -18 0
v -10 -19 0
v -11 -19 0
v -11 -18 0
v -10 -18 0
v -11 -19 0
v -12 -19 0
v -12 -18 0
v -11 -18 0
v -7 -20 0
v -8 -20 0
v -8 -19 0
v -7 -19 0
v -8 -20 0
v -9 -20 0
v -9 -19 0
v -8 -19 0
v -9 -20 0
v -10 -20 0
v -10 -19 0
v -9 -19 0
v -10 -20 0
v -11 -20 0
v -11 -19 0
v -10 -19 0
v -11 -20 0
v -12 -20 0
v -12 -19 0
v -11 -19 0

# Texture cooridinates (Count = 118)
vt 0.125 0.5277778
vt 0.15 0.5277778
vt 0.15 0.5555556
vt 0.125 0.5555556
vt 0.175 0.5277778
vt 0.175 0.5555556
vt 0.15 0.6944444
vt 0.175 0.6944444
vt 0.175 0.7222222
vt 0.15 0.7222222
vt 0.05 0.5
vt 0.075 0.5
vt 0.075 0.5277778
vt 0.05 0.5277778
vt 0.1 0.5
vt 0.125 0.5
vt 0.1 0.5277778
vt 0.15 0.9722222
vt 0.175 0.9722222
vt 0.175 1
vt 0.15 1
vt 0.2 0.9722222
vt 0.2 1
vt 0.225 0.9722222
vt 0.225 1
vt 0.25 0.9722222
vt 0.25 1
vt 0.275 0.9722222
vt 0.275 1
vt 0.15 0.5
vt 0.175 0.5
vt 0.1 0.4722222
vt 0.125 0.4722222
vt 0 0.02777779
vt 0.025 0.02777779
vt 0.025 0.05555558
vt 0 0.05555558
vt 0 0
vt 0.025 0
vt 0.05 0.02777779
vt 0.05 0.05555558
vt 0.15 0.9444444
vt 0.175 0.9444444
vt 0.2 0.9444444
vt 0.225 0.9444444
vt 0.25 0.9444444
vt 0.275 0.9444444
vt 0.15 0.9166667
vt 0.175 0.9166667
vt 0.2 0.9166667
vt 0.225 0.9166667
vt 0.25 0.9166667
vt 0.275 0.9166667
vt 0.15 0.8888889
vt 0.175 0.8888889
vt 0.2 0.8888889
vt 0.225 0.8888889
vt 0.25 0.8888889
vt 0.275 0.8888889
vt 0.15 0.6666666
vt 0.175 0.6666666
vt 0.05 0.4722222
vt 0.075 0.4722222
vt 0.125 0.6944444
vt 0.125 0.7222222
vt 0.15 0.8611111
vt 0.175 0.8611111
vt 0.2 0.8611111
vt 0.225 0.8611111
vt 0.25 0.8611111
vt 0.275 0.8611111
vt 0.1 0.6944444
vt 0.1 0.7222222
vt 0.05 0.8055556
vt 0.075 0.8055556
vt 0.075 0.8333333
vt 0.05 0.8333333
vt 0.1 0.8055556
vt 0.1 0.8333333
vt 0.125 0.8055556
vt 0.125 0.8333333
vt 0.275 0.7777778
vt 0.3 0.7777778
vt 0.3 0.8055556
vt 0.275 0.8055556
vt 0.325 0.7777778
vt 0.325 0.8055556
vt 0.05 0.7777778
vt 0.075 0.7777778
vt 0.1 0.7777778
vt 0.125 0.7777778
vt 0.275 0.75
vt 0.3 0.75
vt 0.325 0.75
vt 0.1 0.6666666
vt 0.125 0.6666666
vt 0.05 0.75
vt 0.075 0.75
vt 0.1 0.75
vt 0.125 0.75
vt 0.2 0.6944444
vt 0.2 0.7222222
vt 0.1 0.5833334
vt 0.125 0.5833334
vt 0.125 0.6111111
vt 0.1 0.6111111
vt 0.15 0.5833334
vt 0.15 0.6111111
vt 0.325 0.8333333
vt 0.35 0.8333333
vt 0.35 0.8611111
vt 0.325 0.8611111
vt 0.375 0.8333333
vt 0.375 0.8611111
vt 0.35 0.8055556
vt 0.375 0.8055556
vt 0.35 0.7777778
vt 0.375 0.7777778

# Normal
vn 0 0 -1

# Mesh description
g Pueblo_mesh_0003

# Faces
f 1/1/1 2/2/1 3/3/1 4/4/1
f 5/2/1 6/5/1 7/6/1 8/3/1
f 9/7/1 10/8/1 11/9/1 12/10/1
f 13/11/1 14/12/1 15/13/1 16/14/1
f 17/15/1 18/16/1 19/1/1 20/17/1
f 21/15/1 22/16/1 23/1/1 24/17/1
f 25/15/1 26/16/1 27/1/1 28/17/1
f 29/12/1 30/15/1 31/17/1 32/13/1
f 33/18/1 34/19/1 35/20/1 36/21/1
f 37/19/1 38/22/1 39/23/1 40/20/1
f 41/22/1 42/24/1 43/25/1 44/23/1
f 45/24/1 46/26/1 47/27/1 48/25/1
f 49/26/1 50/28/1 51/29/1 52/27/1
f 53/16/1 54/30/1 55/2/1 56/1/1
f 57/30/1 58/31/1 59/5/1 60/2/1
f 61/7/1 62/8/1 63/9/1 64/10/1
f 65/32/1 66/33/1 67/16/1 68/15/1
f 69/34/1 70/35/1 71/36/1 72/37/1
f 73/38/1 74/39/1 75/35/1 76/34/1
f 77/35/1 78/40/1 79/41/1 80/36/1
f 81/32/1 82/33/1 83/16/1 84/15/1
f 85/42/1 86/43/1 87/19/1 88/18/1
f 89/43/1 90/44/1 91/22/1 92/19/1
f 93/44/1 94/45/1 95/24/1 96/22/1
f 97/45/1 98/46/1 99/26/1 100/24/1
f 101/46/1 102/47/1 103/28/1 104/26/1
f 105/7/1 106/8/1 107/9/1 108/10/1
f 109/32/1 110/33/1 111/16/1 112/15/1
f 113/38/1 114/39/1 115/35/1 116/34/1
f 117/38/1 118/39/1 119/35/1 120/34/1
f 121/35/1 122/40/1 123/41/1 124/36/1
f 125/32/1 126/33/1 127/16/1 128/15/1
f 129/48/1 130/49/1 131/43/1 132/42/1
f 133/49/1 134/50/1 135/44/1 136/43/1
f 137/50/1 138/51/1 139/45/1 140/44/1
f 141/51/1 142/52/1 143/46/1 144/45/1
f 145/52/1 146/53/1 147/47/1 148/46/1
f 149/7/1 150/8/1 151/9/1 152/10/1
f 153/32/1 154/33/1 155/16/1 156/15/1
f 157/32/1 158/33/1 159/16/1 160/15/1
f 161/54/1 162/55/1 163/49/1 164/48/1
f 165/55/1 166/56/1 167/50/1 168/49/1
f 169/56/1 170/57/1 171/51/1 172/50/1
f 173/57/1 174/58/1 175/52/1 176/51/1
f 177/58/1 178/59/1 179/53/1 180/52/1
f 181/7/1 182/8/1 183/9/1 184/10/1
f 185/60/1 186/61/1 187/8/1 188/7/1
f 189/62/1 190/63/1 191/12/1 192/11/1
f 193/15/1 194/16/1 195/1/1 196/17/1
f 197/64/1 198/7/1 199/10/1 200/65/1
f 201/15/1 202/16/1 203/1/1 204/17/1
f 205/63/1 206/32/1 207/15/1 208/12/1
f 209/66/1 210/67/1 211/55/1 212/54/1
f 213/67/1 214/68/1 215/56/1 216/55/1
f 217/68/1 218/69/1 219/57/1 220/56/1
f 221/69/1 222/70/1 223/58/1 224/57/1
f 225/70/1 226/71/1 227/59/1 228/58/1
f 229/7/1 230/8/1 231/9/1 232/10/1
f 233/72/1 234/64/1 235/65/1 236/73/1
f 237/74/1 238/75/1 239/76/1 240/77/1
f 241/75/1 242/78/1 243/79/1 244/76/1
f 245/78/1 246/80/1 247/81/1 248/79/1
f 249/7/1 250/8/1 251/9/1 252/10/1
f 253/82/1 254/83/1 255/84/1 256/85/1
f 257/83/1 258/86/1 259/87/1 260/84/1
f 261/72/1 262/64/1 263/65/1 264/73/1
f 265/88/1 266/89/1 267/75/1 268/74/1
f 269/89/1 270/90/1 271/78/1 272/75/1
f 273/90/1 274/91/1 275/80/1 276/78/1
f 277/7/1 278/8/1 279/9/1 280/10/1
f 281/72/1 282/64/1 283/65/1 284/73/1
f 285/7/1 286/8/1 287/9/1 288/10/1
f 289/92/1 290/93/1 291/83/1 292/82/1
f 293/93/1 294/94/1 295/86/1 296/83/1
f 297/95/1 298/96/1 299/64/1 300/72/1
f 301/64/1 302/7/1 303/10/1 304/65/1
f 305/97/1 306/98/1 307/89/1 308/88/1
f 309/98/1 310/99/1 311/90/1 312/89/1
f 313/99/1 314/100/1 315/91/1 316/90/1
f 317/60/1 318/61/1 319/8/1 320/7/1
f 321/8/1 322/101/1 323/102/1 324/9/1
f 325/8/1 326/101/1 327/102/1 328/9/1
f 329/8/1 330/101/1 331/102/1 332/9/1
f 333/72/1 334/64/1 335/65/1 336/73/1
f 337/60/1 338/61/1 339/8/1 340/7/1
f 341/103/1 342/104/1 343/105/1 344/106/1
f 345/104/1 346/107/1 347/108/1 348/105/1
f 349/104/1 350/107/1 351/108/1 352/105/1
f 353/104/1 354/107/1 355/108/1 356/105/1
f 357/104/1 358/107/1 359/108/1 360/105/1
f 361/104/1 362/107/1 363/108/1 364/105/1
f 365/104/1 366/107/1 367/108/1 368/105/1
f 369/8/1 370/101/1 371/102/1 372/9/1
f 373/8/1 374/101/1 375/102/1 376/9/1
f 377/8/1 378/101/1 379/102/1 380/9/1
f 381/104/1 382/107/1 383/108/1 384/105/1
f 385/104/1 386/107/1 387/108/1 388/105/1
f 389/64/1 390/7/1 391/10/1 392/65/1
f 393/8/1 394/101/1 395/102/1 396/9/1
f 397/8/1 398/101/1 399/102/1 400/9/1
f 401/8/1 402/101/1 403/102/1 404/9/1
f 405/82/1 406/83/1 407/84/1 408/85/1
f 409/83/1 410/86/1 411/87/1 412/84/1
f 413/64/1 414/7/1 415/10/1 416/65/1
f 417/64/1 418/7/1 419/10/1 420/65/1
f 421/109/1 422/110/1 423/111/1 424/112/1
f 425/110/1 426/113/1 427/114/1 428/111/1
f 429/92/1 430/93/1 431/83/1 432/82/1
f 433/93/1 434/94/1 435/86/1 436/83/1
f 437/87/1 438/115/1 439/110/1 440/109/1
f 441/115/1 442/116/1 443/113/1 444/110/1
f 445/86/1 446/117/1 447/115/1 448/87/1
f 449/117/1 450/118/1 451/116/1 452/115/1
f 453/82/1 454/83/1 455/84/1 456/85/1
f 457/83/1 458/86/1 459/87/1 460/84/1
f 461/74/1 462/75/1 463/76/1 464/77/1
f 465/75/1 466/78/1 467/79/1 468/76/1
f 469/75/1 470/78/1 471/79/1 472/76/1
f 473/75/1 474/78/1 475/79/1 476/76/1
f 477/78/1 478/80/1 479/81/1 480/79/1
f 481/92/1 482/93/1 483/83/1 484/82/1
f 485/93/1 486/94/1 487/86/1 488/83/1
f 489/88/1 490/89/1 491/75/1 492/74/1
f 493/89/1 494/90/1 495/78/1 496/75/1
f 497/89/1 498/90/1 499/78/1 500/75/1
f 501/89/1 502/90/1 503/78/1 504/75/1
f 505/90/1 506/91/1 507/80/1 508/78/1
f 509/88/1 510/89/1 511/75/1 512/74/1
f 513/89/1 514/90/1 515/78/1 516/75/1
f 517/89/1 518/90/1 519/78/1 520/75/1
f 521/89/1 522/90/1 523/78/1 524/75/1
f 525/90/1 526/91/1 527/80/1 528/78/1
f 529/88/1 530/89/1 531/75/1 532/74/1
f 533/89/1 534/90/1 535/78/1 536/75/1
f 537/89/1 538/90/1 539/78/1 540/75/1
f 541/89/1 542/90/1 543/78/1 544/75/1
f 545/90/1 546/91/1 547/80/1 548/78/1

