# Tiled2Unity generated file. Do not modify by hand.
# Wavefront file for 'Pueblo_mesh_0002.obj'

# Vertices (Count = 528)
v 0 -1 0
v -1 -1 0
v -1 0 0
v 0 0 0
v -1 -1 0
v -2 -1 0
v -2 0 0
v -1 0 0
v -2 -1 0
v -3 -1 0
v -3 0 0
v -2 0 0
v -3 -1 0
v -4 -1 0
v -4 0 0
v -3 0 0
v -4 -1 0
v -5 -1 0
v -5 0 0
v -4 0 0
v -5 -1 0
v -6 -1 0
v -6 0 0
v -5 0 0
v -6 -1 0
v -7 -1 0
v -7 0 0
v -6 0 0
v -7 -1 0
v -8 -1 0
v -8 0 0
v -7 0 0
v -8 -1 0
v -9 -1 0
v -9 0 0
v -8 0 0
v -9 -1 0
v -10 -1 0
v -10 0 0
v -9 0 0
v -10 -1 0
v -11 -1 0
v -11 0 0
v -10 0 0
v -11 -1 0
v -12 -1 0
v -12 0 0
v -11 0 0
v -12 -1 0
v -13 -1 0
v -13 0 0
v -12 0 0
v -13 -1 0
v -14 -1 0
v -14 0 0
v -13 0 0
v -14 -1 0
v -15 -1 0
v -15 0 0
v -14 0 0
v -15 -1 0
v -16 -1 0
v -16 0 0
v -15 0 0
v -16 -1 0
v -17 -1 0
v -17 0 0
v -16 0 0
v -17 -1 0
v -18 -1 0
v -18 0 0
v -17 0 0
v -18 -1 0
v -19 -1 0
v -19 0 0
v -18 0 0
v -19 -1 0
v -20 -1 0
v -20 0 0
v -19 0 0
v 0 -2 0
v -1 -2 0
v -1 -1 0
v 0 -1 0
v -5 -2 0
v -6 -2 0
v -6 -1 0
v -5 -1 0
v -6 -2 0
v -7 -2 0
v -7 -1 0
v -6 -1 0
v -7 -2 0
v -8 -2 0
v -8 -1 0
v -7 -1 0
v -8 -2 0
v -9 -2 0
v -9 -1 0
v -8 -1 0
v -9 -2 0
v -10 -2 0
v -10 -1 0
v -9 -1 0
v -10 -2 0
v -11 -2 0
v -11 -1 0
v -10 -1 0
v -11 -2 0
v -12 -2 0
v -12 -1 0
v -11 -1 0
v -12 -2 0
v -13 -2 0
v -13 -1 0
v -12 -1 0
v -13 -2 0
v -14 -2 0
v -14 -1 0
v -13 -1 0
v -14 -2 0
v -15 -2 0
v -15 -1 0
v -14 -1 0
v -15 -2 0
v -16 -2 0
v -16 -1 0
v -15 -1 0
v -16 -2 0
v -17 -2 0
v -17 -1 0
v -16 -1 0
v -17 -2 0
v -18 -2 0
v -18 -1 0
v -17 -1 0
v -18 -2 0
v -19 -2 0
v -19 -1 0
v -18 -1 0
v -19 -2 0
v -20 -2 0
v -20 -1 0
v -19 -1 0
v 0 -3 0
v -1 -3 0
v -1 -2 0
v 0 -2 0
v -3 -3 0
v -4 -3 0
v -4 -2 0
v -3 -2 0
v -4 -3 0
v -5 -3 0
v -5 -2 0
v -4 -2 0
v -17 -3 0
v -18 -3 0
v -18 -2 0
v -17 -2 0
v -18 -3 0
v -19 -3 0
v -19 -2 0
v -18 -2 0
v -19 -3 0
v -20 -3 0
v -20 -2 0
v -19 -2 0
v 0 -4 0
v -1 -4 0
v -1 -3 0
v 0 -3 0
v -1 -4 0
v -2 -4 0
v -2 -3 0
v -1 -3 0
v -3 -4 0
v -4 -4 0
v -4 -3 0
v -3 -3 0
v -4 -4 0
v -5 -4 0
v -5 -3 0
v -4 -3 0
v -16 -4 0
v -17 -4 0
v -17 -3 0
v -16 -3 0
v -17 -4 0
v -18 -4 0
v -18 -3 0
v -17 -3 0
v -18 -4 0
v -19 -4 0
v -19 -3 0
v -18 -3 0
v -19 -4 0
v -20 -4 0
v -20 -3 0
v -19 -3 0
v 0 -5 0
v -1 -5 0
v -1 -4 0
v 0 -4 0
v -1 -5 0
v -2 -5 0
v -2 -4 0
v -1 -4 0
v -16 -5 0
v -17 -5 0
v -17 -4 0
v -16 -4 0
v -17 -5 0
v -18 -5 0
v -18 -4 0
v -17 -4 0
v -18 -5 0
v -19 -5 0
v -19 -4 0
v -18 -4 0
v -19 -5 0
v -20 -5 0
v -20 -4 0
v -19 -4 0
v 0 -6 0
v -1 -6 0
v -1 -5 0
v 0 -5 0
v -1 -6 0
v -2 -6 0
v -2 -5 0
v -1 -5 0
v -16 -6 0
v -17 -6 0
v -17 -5 0
v -16 -5 0
v -17 -6 0
v -18 -6 0
v -18 -5 0
v -17 -5 0
v -18 -6 0
v -19 -6 0
v -19 -5 0
v -18 -5 0
v -19 -6 0
v -20 -6 0
v -20 -5 0
v -19 -5 0
v 0 -7 0
v -1 -7 0
v -1 -6 0
v 0 -6 0
v -1 -7 0
v -2 -7 0
v -2 -6 0
v -1 -6 0
v -18 -7 0
v -19 -7 0
v -19 -6 0
v -18 -6 0
v -19 -7 0
v -20 -7 0
v -20 -6 0
v -19 -6 0
v 0 -8 0
v -1 -8 0
v -1 -7 0
v 0 -7 0
v -18 -8 0
v -19 -8 0
v -19 -7 0
v -18 -7 0
v -19 -8 0
v -20 -8 0
v -20 -7 0
v -19 -7 0
v 0 -9 0
v -1 -9 0
v -1 -8 0
v 0 -8 0
v -1 -9 0
v -2 -9 0
v -2 -8 0
v -1 -8 0
v -18 -9 0
v -19 -9 0
v -19 -8 0
v -18 -8 0
v -19 -9 0
v -20 -9 0
v -20 -8 0
v -19 -8 0
v 0 -10 0
v -1 -10 0
v -1 -9 0
v 0 -9 0
v -1 -10 0
v -2 -10 0
v -2 -9 0
v -1 -9 0
v -18 -10 0
v -19 -10 0
v -19 -9 0
v -18 -9 0
v -19 -10 0
v -20 -10 0
v -20 -9 0
v -19 -9 0
v 0 -11 0
v -1 -11 0
v -1 -10 0
v 0 -10 0
v -1 -11 0
v -2 -11 0
v -2 -10 0
v -1 -10 0
v -18 -11 0
v -19 -11 0
v -19 -10 0
v -18 -10 0
v -19 -11 0
v -20 -11 0
v -20 -10 0
v -19 -10 0
v 0 -12 0
v -1 -12 0
v -1 -11 0
v 0 -11 0
v -1 -12 0
v -2 -12 0
v -2 -11 0
v -1 -11 0
v -18 -12 0
v -19 -12 0
v -19 -11 0
v -18 -11 0
v -19 -12 0
v -20 -12 0
v -20 -11 0
v -19 -11 0
v 0 -13 0
v -1 -13 0
v -1 -12 0
v 0 -12 0
v -1 -13 0
v -2 -13 0
v -2 -12 0
v -1 -12 0
v -18 -13 0
v -19 -13 0
v -19 -12 0
v -18 -12 0
v -19 -13 0
v -20 -13 0
v -20 -12 0
v -19 -12 0
v 0 -14 0
v -1 -14 0
v -1 -13 0
v 0 -13 0
v -1 -14 0
v -2 -14 0
v -2 -13 0
v -1 -13 0
v -18 -14 0
v -19 -14 0
v -19 -13 0
v -18 -13 0
v -19 -14 0
v -20 -14 0
v -20 -13 0
v -19 -13 0
v 0 -15 0
v -1 -15 0
v -1 -14 0
v 0 -14 0
v -1 -15 0
v -2 -15 0
v -2 -14 0
v -1 -14 0
v -17 -15 0
v -18 -15 0
v -18 -14 0
v -17 -14 0
v -18 -15 0
v -19 -15 0
v -19 -14 0
v -18 -14 0
v -19 -15 0
v -20 -15 0
v -20 -14 0
v -19 -14 0
v 0 -16 0
v -1 -16 0
v -1 -15 0
v 0 -15 0
v -1 -16 0
v -2 -16 0
v -2 -15 0
v -1 -15 0
v -17 -16 0
v -18 -16 0
v -18 -15 0
v -17 -15 0
v -18 -16 0
v -19 -16 0
v -19 -15 0
v -18 -15 0
v -19 -16 0
v -20 -16 0
v -20 -15 0
v -19 -15 0
v 0 -17 0
v -1 -17 0
v -1 -16 0
v 0 -16 0
v -1 -17 0
v -2 -17 0
v -2 -16 0
v -1 -16 0
v -17 -17 0
v -18 -17 0
v -18 -16 0
v -17 -16 0
v -18 -17 0
v -19 -17 0
v -19 -16 0
v -18 -16 0
v -19 -17 0
v -20 -17 0
v -20 -16 0
v -19 -16 0
v 0 -18 0
v -1 -18 0
v -1 -17 0
v 0 -17 0
v -1 -18 0
v -2 -18 0
v -2 -17 0
v -1 -17 0
v -17 -18 0
v -18 -18 0
v -18 -17 0
v -17 -17 0
v -18 -18 0
v -19 -18 0
v -19 -17 0
v -18 -17 0
v -19 -18 0
v -20 -18 0
v -20 -17 0
v -19 -17 0
v 0 -19 0
v -1 -19 0
v -1 -18 0
v 0 -18 0
v -1 -19 0
v -2 -19 0
v -2 -18 0
v -1 -18 0
v -5 -19 0
v -6 -19 0
v -6 -18 0
v -5 -18 0
v -6 -19 0
v -7 -19 0
v -7 -18 0
v -6 -18 0
v -12 -19 0
v -13 -19 0
v -13 -18 0
v -12 -18 0
v -13 -19 0
v -14 -19 0
v -14 -18 0
v -13 -18 0
v -17 -19 0
v -18 -19 0
v -18 -18 0
v -17 -18 0
v -18 -19 0
v -19 -19 0
v -19 -18 0
v -18 -18 0
v -19 -19 0
v -20 -19 0
v -20 -18 0
v -19 -18 0
v 0 -20 0
v -1 -20 0
v -1 -19 0
v 0 -19 0
v -1 -20 0
v -2 -20 0
v -2 -19 0
v -1 -19 0
v -2 -20 0
v -3 -20 0
v -3 -19 0
v -2 -19 0
v -5 -20 0
v -6 -20 0
v -6 -19 0
v -5 -19 0
v -6 -20 0
v -7 -20 0
v -7 -19 0
v -6 -19 0
v -12 -20 0
v -13 -20 0
v -13 -19 0
v -12 -19 0
v -13 -20 0
v -14 -20 0
v -14 -19 0
v -13 -19 0
v -17 -20 0
v -18 -20 0
v -18 -19 0
v -17 -19 0
v -18 -20 0
v -19 -20 0
v -19 -19 0
v -18 -19 0
v -19 -20 0
v -20 -20 0
v -20 -19 0
v -19 -19 0

# Texture cooridinates (Count = 28)
vt 0.1 0.4444444
vt 0.125 0.4444444
vt 0.125 0.4722222
vt 0.1 0.4722222
vt 0.15 0.4444444
vt 0.15 0.4722222
vt 0.075 0.4444444
vt 0.075 0.4722222
vt 0.1 0.5277778
vt 0.125 0.5277778
vt 0.125 0.5555556
vt 0.1 0.5555556
vt 0.15 0.5
vt 0.125 0.5
vt 0.075 0.5277778
vt 0.075 0.5555556
vt 0.05 0.5277778
vt 0.05 0.5555556
vt 0.175 0.4722222
vt 0.2 0.4722222
vt 0.2 0.5
vt 0.175 0.5
vt 0.15 0.5277778
vt 0.175 0.5277778
vt 0.15 0.5555556
vt 0.175 0.5555556
vt 0.2 0.5277778
vt 0.2 0.5555556

# Normal
vn 0 0 -1

# Mesh description
g Pueblo_mesh_0002

# Faces
f 1/1/1 2/2/1 3/3/1 4/4/1
f 5/2/1 6/5/1 7/6/1 8/3/1
f 9/2/1 10/5/1 11/6/1 12/3/1
f 13/2/1 14/5/1 15/6/1 16/3/1
f 17/2/1 18/5/1 19/6/1 20/3/1
f 21/7/1 22/1/1 23/4/1 24/8/1
f 25/9/1 26/10/1 27/11/1 28/12/1
f 29/3/1 30/6/1 31/13/1 32/14/1
f 33/15/1 34/9/1 35/12/1 36/16/1
f 37/17/1 38/15/1 39/16/1 40/18/1
f 41/17/1 42/15/1 43/16/1 44/18/1
f 45/1/1 46/2/1 47/3/1 48/4/1
f 49/7/1 50/1/1 51/4/1 52/8/1
f 53/17/1 54/15/1 55/16/1 56/18/1
f 57/17/1 58/15/1 59/16/1 60/18/1
f 61/9/1 62/10/1 63/11/1 64/12/1
f 65/15/1 66/9/1 67/12/1 68/16/1
f 69/17/1 70/15/1 71/16/1 72/18/1
f 73/17/1 74/15/1 75/16/1 76/18/1
f 77/19/1 78/20/1 79/21/1 80/22/1
f 81/19/1 82/20/1 83/21/1 84/22/1
f 85/14/1 86/13/1 87/23/1 88/10/1
f 89/2/1 90/5/1 91/6/1 92/3/1
f 93/2/1 94/5/1 95/6/1 96/3/1
f 97/2/1 98/5/1 99/6/1 100/3/1
f 101/2/1 102/5/1 103/6/1 104/3/1
f 105/2/1 106/5/1 107/6/1 108/3/1
f 109/13/1 110/22/1 111/24/1 112/23/1
f 113/14/1 114/13/1 115/23/1 116/10/1
f 117/2/1 118/5/1 119/6/1 120/3/1
f 121/2/1 122/5/1 123/6/1 124/3/1
f 125/2/1 126/5/1 127/6/1 128/3/1
f 129/2/1 130/5/1 131/6/1 132/3/1
f 133/7/1 134/1/1 135/4/1 136/8/1
f 137/17/1 138/15/1 139/16/1 140/18/1
f 141/19/1 142/20/1 143/21/1 144/22/1
f 145/19/1 146/20/1 147/21/1 148/22/1
f 149/10/1 150/23/1 151/25/1 152/11/1
f 153/23/1 154/24/1 155/26/1 156/25/1
f 157/6/1 158/19/1 159/22/1 160/13/1
f 161/17/1 162/15/1 163/16/1 164/18/1
f 165/19/1 166/20/1 167/21/1 168/22/1
f 169/17/1 170/15/1 171/16/1 172/18/1
f 173/23/1 174/24/1 175/26/1 176/25/1
f 177/14/1 178/13/1 179/23/1 180/10/1
f 181/13/1 182/22/1 183/24/1 184/23/1
f 185/10/1 186/23/1 187/25/1 188/11/1
f 189/15/1 190/9/1 191/12/1 192/16/1
f 193/17/1 194/15/1 195/16/1 196/18/1
f 197/19/1 198/20/1 199/21/1 200/22/1
f 201/17/1 202/15/1 203/16/1 204/18/1
f 205/19/1 206/20/1 207/21/1 208/22/1
f 209/6/1 210/19/1 211/22/1 212/13/1
f 213/17/1 214/15/1 215/16/1 216/18/1
f 217/17/1 218/15/1 219/16/1 220/18/1
f 221/17/1 222/15/1 223/16/1 224/18/1
f 225/17/1 226/15/1 227/16/1 228/18/1
f 229/19/1 230/20/1 231/21/1 232/22/1
f 233/14/1 234/13/1 235/23/1 236/10/1
f 237/2/1 238/5/1 239/6/1 240/3/1
f 241/22/1 242/21/1 243/27/1 244/24/1
f 245/17/1 246/15/1 247/16/1 248/18/1
f 249/24/1 250/27/1 251/28/1 252/26/1
f 253/13/1 254/22/1 255/24/1 256/23/1
f 257/6/1 258/19/1 259/22/1 260/13/1
f 261/17/1 262/15/1 263/16/1 264/18/1
f 265/19/1 266/20/1 267/21/1 268/22/1
f 269/6/1 270/19/1 271/22/1 272/13/1
f 273/17/1 274/15/1 275/16/1 276/18/1
f 277/17/1 278/15/1 279/16/1 280/18/1
f 281/23/1 282/24/1 283/26/1 284/25/1
f 285/6/1 286/19/1 287/22/1 288/13/1
f 289/17/1 290/15/1 291/16/1 292/18/1
f 293/17/1 294/15/1 295/16/1 296/18/1
f 297/19/1 298/20/1 299/21/1 300/22/1
f 301/6/1 302/19/1 303/22/1 304/13/1
f 305/17/1 306/15/1 307/16/1 308/18/1
f 309/17/1 310/15/1 311/16/1 312/18/1
f 313/19/1 314/20/1 315/21/1 316/22/1
f 317/6/1 318/19/1 319/22/1 320/13/1
f 321/17/1 322/15/1 323/16/1 324/18/1
f 325/17/1 326/15/1 327/16/1 328/18/1
f 329/19/1 330/20/1 331/21/1 332/22/1
f 333/6/1 334/19/1 335/22/1 336/13/1
f 337/17/1 338/15/1 339/16/1 340/18/1
f 341/17/1 342/15/1 343/16/1 344/18/1
f 345/19/1 346/20/1 347/21/1 348/22/1
f 349/6/1 350/19/1 351/22/1 352/13/1
f 353/17/1 354/15/1 355/16/1 356/18/1
f 357/17/1 358/15/1 359/16/1 360/18/1
f 361/19/1 362/20/1 363/21/1 364/22/1
f 365/6/1 366/19/1 367/22/1 368/13/1
f 369/17/1 370/15/1 371/16/1 372/18/1
f 373/17/1 374/15/1 375/16/1 376/18/1
f 377/19/1 378/20/1 379/21/1 380/22/1
f 381/10/1 382/23/1 383/25/1 384/11/1
f 385/17/1 386/15/1 387/16/1 388/18/1
f 389/17/1 390/15/1 391/16/1 392/18/1
f 393/17/1 394/15/1 395/16/1 396/18/1
f 397/19/1 398/20/1 399/21/1 400/22/1
f 401/6/1 402/19/1 403/22/1 404/13/1
f 405/17/1 406/15/1 407/16/1 408/18/1
f 409/19/1 410/20/1 411/21/1 412/22/1
f 413/17/1 414/15/1 415/16/1 416/18/1
f 417/19/1 418/20/1 419/21/1 420/22/1
f 421/6/1 422/19/1 423/22/1 424/13/1
f 425/17/1 426/15/1 427/16/1 428/18/1
f 429/19/1 430/20/1 431/21/1 432/22/1
f 433/17/1 434/15/1 435/16/1 436/18/1
f 437/19/1 438/20/1 439/21/1 440/22/1
f 441/6/1 442/19/1 443/22/1 444/13/1
f 445/17/1 446/15/1 447/16/1 448/18/1
f 449/19/1 450/20/1 451/21/1 452/22/1
f 453/7/1 454/1/1 455/4/1 456/8/1
f 457/19/1 458/20/1 459/21/1 460/22/1
f 461/10/1 462/23/1 463/25/1 464/11/1
f 465/23/1 466/24/1 467/26/1 468/25/1
f 469/10/1 470/23/1 471/25/1 472/11/1
f 473/23/1 474/24/1 475/26/1 476/25/1
f 477/6/1 478/19/1 479/22/1 480/13/1
f 481/17/1 482/15/1 483/16/1 484/18/1
f 485/19/1 486/20/1 487/21/1 488/22/1
f 489/7/1 490/1/1 491/4/1 492/8/1
f 493/22/1 494/21/1 495/27/1 496/24/1
f 497/23/1 498/24/1 499/26/1 500/25/1
f 501/14/1 502/13/1 503/23/1 504/10/1
f 505/13/1 506/22/1 507/24/1 508/23/1
f 509/14/1 510/13/1 511/23/1 512/10/1
f 513/13/1 514/22/1 515/24/1 516/23/1
f 517/14/1 518/13/1 519/23/1 520/10/1
f 521/2/1 522/5/1 523/6/1 524/3/1
f 525/13/1 526/22/1 527/24/1 528/23/1

