# Tiled2Unity generated file. Do not modify by hand.
# Wavefront file for 'Escenario_mesh_0002.obj'

# Vertices (Count = 256)
v -1 -1 0
v -2 -1 0
v -2 0 0
v -1 0 0
v -2 -1 0
v -3 -1 0
v -3 0 0
v -2 0 0
v -3 -1 0
v -4 -1 0
v -4 0 0
v -3 0 0
v -6 -1 0
v -7 -1 0
v -7 0 0
v -6 0 0
v -7 -1 0
v -8 -1 0
v -8 0 0
v -7 0 0
v -8 -1 0
v -9 -1 0
v -9 0 0
v -8 0 0
v 0 -2 0
v -1 -2 0
v -1 -1 0
v 0 -1 0
v -1 -2 0
v -2 -2 0
v -2 -1 0
v -1 -1 0
v -2 -2 0
v -3 -2 0
v -3 -1 0
v -2 -1 0
v -3 -2 0
v -4 -2 0
v -4 -1 0
v -3 -1 0
v -6 -2 0
v -7 -2 0
v -7 -1 0
v -6 -1 0
v -7 -2 0
v -8 -2 0
v -8 -1 0
v -7 -1 0
v -8 -2 0
v -9 -2 0
v -9 -1 0
v -8 -1 0
v 0 -3 0
v -1 -3 0
v -1 -2 0
v 0 -2 0
v -1 -3 0
v -2 -3 0
v -2 -2 0
v -1 -2 0
v -2 -3 0
v -3 -3 0
v -3 -2 0
v -2 -2 0
v -3 -3 0
v -4 -3 0
v -4 -2 0
v -3 -2 0
v -5 -3 0
v -6 -3 0
v -6 -2 0
v -5 -2 0
v -6 -3 0
v -7 -3 0
v -7 -2 0
v -6 -2 0
v -7 -3 0
v -8 -3 0
v -8 -2 0
v -7 -2 0
v -8 -3 0
v -9 -3 0
v -9 -2 0
v -8 -2 0
v 0 -4 0
v -1 -4 0
v -1 -3 0
v 0 -3 0
v -1 -4 0
v -2 -4 0
v -2 -3 0
v -1 -3 0
v -2 -4 0
v -3 -4 0
v -3 -3 0
v -2 -3 0
v -3 -4 0
v -4 -4 0
v -4 -3 0
v -3 -3 0
v -6 -4 0
v -7 -4 0
v -7 -3 0
v -6 -3 0
v -7 -4 0
v -8 -4 0
v -8 -3 0
v -7 -3 0
v -8 -4 0
v -9 -4 0
v -9 -3 0
v -8 -3 0
v -9 -4 0
v -10 -4 0
v -10 -3 0
v -9 -3 0
v -2 -5 0
v -3 -5 0
v -3 -4 0
v -2 -4 0
v -7 -5 0
v -8 -5 0
v -8 -4 0
v -7 -4 0
v 0 -7 0
v -1 -7 0
v -1 -6 0
v 0 -6 0
v -1 -7 0
v -2 -7 0
v -2 -6 0
v -1 -6 0
v -2 -7 0
v -3 -7 0
v -3 -6 0
v -2 -6 0
v -3 -7 0
v -4 -7 0
v -4 -6 0
v -3 -6 0
v -6 -7 0
v -7 -7 0
v -7 -6 0
v -6 -6 0
v -7 -7 0
v -8 -7 0
v -8 -6 0
v -7 -6 0
v -8 -7 0
v -9 -7 0
v -9 -6 0
v -8 -6 0
v -9 -7 0
v -10 -7 0
v -10 -6 0
v -9 -6 0
v 0 -8 0
v -1 -8 0
v -1 -7 0
v 0 -7 0
v -1 -8 0
v -2 -8 0
v -2 -7 0
v -1 -7 0
v -2 -8 0
v -3 -8 0
v -3 -7 0
v -2 -7 0
v -3 -8 0
v -4 -8 0
v -4 -7 0
v -3 -7 0
v -5 -8 0
v -6 -8 0
v -6 -7 0
v -5 -7 0
v -6 -8 0
v -7 -8 0
v -7 -7 0
v -6 -7 0
v -7 -8 0
v -8 -8 0
v -8 -7 0
v -7 -7 0
v -8 -8 0
v -9 -8 0
v -9 -7 0
v -8 -7 0
v -9 -8 0
v -10 -8 0
v -10 -7 0
v -9 -7 0
v 0 -9 0
v -1 -9 0
v -1 -8 0
v 0 -8 0
v -1 -9 0
v -2 -9 0
v -2 -8 0
v -1 -8 0
v -2 -9 0
v -3 -9 0
v -3 -8 0
v -2 -8 0
v -3 -9 0
v -4 -9 0
v -4 -8 0
v -3 -8 0
v -6 -9 0
v -7 -9 0
v -7 -8 0
v -6 -8 0
v -7 -9 0
v -8 -9 0
v -8 -8 0
v -7 -8 0
v -8 -9 0
v -9 -9 0
v -9 -8 0
v -8 -8 0
v -9 -9 0
v -10 -9 0
v -10 -8 0
v -9 -8 0
v 0 -10 0
v -1 -10 0
v -1 -9 0
v 0 -9 0
v -1 -10 0
v -2 -10 0
v -2 -9 0
v -1 -9 0
v -2 -10 0
v -3 -10 0
v -3 -9 0
v -2 -9 0
v -3 -10 0
v -4 -10 0
v -4 -9 0
v -3 -9 0
v -6 -10 0
v -7 -10 0
v -7 -9 0
v -6 -9 0
v -7 -10 0
v -8 -10 0
v -8 -9 0
v -7 -9 0
v -8 -10 0
v -9 -10 0
v -9 -9 0
v -8 -9 0
v -9 -10 0
v -10 -10 0
v -10 -9 0
v -9 -9 0

# Texture cooridinates (Count = 61)
vt 0.325 0.8333333
vt 0.35 0.8333333
vt 0.35 0.8611111
vt 0.325 0.8611111
vt 0.375 0.8333333
vt 0.375 0.8611111
vt 0.1 0.4722222
vt 0.125 0.4722222
vt 0.125 0.5
vt 0.1 0.5
vt 0.075 0.6666666
vt 0.1 0.6666666
vt 0.1 0.6944444
vt 0.075 0.6944444
vt 0.325 0.8055556
vt 0.35 0.8055556
vt 0.375 0.8055556
vt 0.325 0.7777778
vt 0.35 0.7777778
vt 0.375 0.7777778
vt 0.2 0.8333333
vt 0.225 0.8333333
vt 0.225 0.8611111
vt 0.2 0.8611111
vt 0.125 0.5277778
vt 0.1 0.5277778
vt 0.075 0.4722222
vt 0.075 0.5
vt 0.05 0.4722222
vt 0.05 0.5
vt 0.075 0.5277778
vt 0.05 0.5277778
vt 0.05 0.8055556
vt 0.075 0.8055556
vt 0.075 0.8333333
vt 0.05 0.8333333
vt 0.1 0.8055556
vt 0.1 0.8333333
vt 0.125 0.8055556
vt 0.125 0.8333333
vt 0.15 0.5277778
vt 0.15 0.5555556
vt 0.125 0.5555556
vt 0.175 0.5277778
vt 0.175 0.5555556
vt 0.05 0.7777778
vt 0.075 0.7777778
vt 0.1 0.7777778
vt 0.125 0.7777778
vt 0.15 0.5
vt 0.175 0.5
vt 0.075 0.6388889
vt 0.1 0.6388889
vt 0.05 0.75
vt 0.075 0.75
vt 0.1 0.75
vt 0.125 0.75
vt 0 0.75
vt 0.025 0.75
vt 0.025 0.7777778
vt 0 0.7777778

# Normal
vn 0 0 -1

# Mesh description
g Escenario_mesh_0002

# Faces
f 1/1/1 2/2/1 3/3/1 4/4/1
f 5/2/1 6/5/1 7/6/1 8/3/1
f 9/7/1 10/8/1 11/9/1 12/10/1
f 13/7/1 14/8/1 15/9/1 16/10/1
f 17/1/1 18/2/1 19/3/1 20/4/1
f 21/2/1 22/5/1 23/6/1 24/3/1
f 25/11/1 26/12/1 27/13/1 28/14/1
f 29/15/1 30/16/1 31/2/1 32/1/1
f 33/16/1 34/17/1 35/5/1 36/2/1
f 37/7/1 38/8/1 39/9/1 40/10/1
f 41/7/1 42/8/1 43/9/1 44/10/1
f 45/15/1 46/16/1 47/2/1 48/1/1
f 49/16/1 50/17/1 51/5/1 52/2/1
f 53/11/1 54/12/1 55/13/1 56/14/1
f 57/18/1 58/19/1 59/16/1 60/15/1
f 61/19/1 62/20/1 63/17/1 64/16/1
f 65/7/1 66/8/1 67/9/1 68/10/1
f 69/21/1 70/22/1 71/23/1 72/24/1
f 73/7/1 74/8/1 75/9/1 76/10/1
f 77/18/1 78/19/1 79/16/1 80/15/1
f 81/19/1 82/20/1 83/17/1 84/16/1
f 85/10/1 86/9/1 87/25/1 88/26/1
f 89/10/1 90/9/1 91/25/1 92/26/1
f 93/10/1 94/9/1 95/25/1 96/26/1
f 97/27/1 98/7/1 99/10/1 100/28/1
f 101/29/1 102/27/1 103/28/1 104/30/1
f 105/10/1 106/9/1 107/25/1 108/26/1
f 109/10/1 110/9/1 111/25/1 112/26/1
f 113/10/1 114/9/1 115/25/1 116/26/1
f 117/21/1 118/22/1 119/23/1 120/24/1
f 121/21/1 122/22/1 123/23/1 124/24/1
f 125/10/1 126/9/1 127/25/1 128/26/1
f 129/10/1 130/9/1 131/25/1 132/26/1
f 133/10/1 134/9/1 135/25/1 136/26/1
f 137/28/1 138/10/1 139/26/1 140/31/1
f 141/30/1 142/28/1 143/31/1 144/32/1
f 145/10/1 146/9/1 147/25/1 148/26/1
f 149/10/1 150/9/1 151/25/1 152/26/1
f 153/10/1 154/9/1 155/25/1 156/26/1
f 157/33/1 158/34/1 159/35/1 160/36/1
f 161/34/1 162/37/1 163/38/1 164/35/1
f 165/37/1 166/39/1 167/40/1 168/38/1
f 169/7/1 170/8/1 171/9/1 172/10/1
f 173/21/1 174/22/1 175/23/1 176/24/1
f 177/7/1 178/8/1 179/9/1 180/10/1
f 181/25/1 182/41/1 183/42/1 184/43/1
f 185/41/1 186/44/1 187/45/1 188/42/1
f 189/11/1 190/12/1 191/13/1 192/14/1
f 193/46/1 194/47/1 195/34/1 196/33/1
f 197/47/1 198/48/1 199/37/1 200/34/1
f 201/48/1 202/49/1 203/39/1 204/37/1
f 205/7/1 206/8/1 207/9/1 208/10/1
f 209/7/1 210/8/1 211/9/1 212/10/1
f 213/9/1 214/50/1 215/41/1 216/25/1
f 217/50/1 218/51/1 219/44/1 220/41/1
f 221/52/1 222/53/1 223/12/1 224/11/1
f 225/54/1 226/55/1 227/47/1 228/46/1
f 229/55/1 230/56/1 231/48/1 232/47/1
f 233/56/1 234/57/1 235/49/1 236/48/1
f 237/7/1 238/8/1 239/9/1 240/10/1
f 241/7/1 242/8/1 243/9/1 244/10/1
f 245/58/1 246/59/1 247/60/1 248/61/1
f 249/59/1 250/54/1 251/46/1 252/60/1
f 253/11/1 254/12/1 255/13/1 256/14/1

