# Tiled2Unity generated file. Do not modify by hand.
# Wavefront file for 'MINIMAPA_mesh_0004.obj'

# Vertices (Count = 596)
v 0 -1 0
v -1 -1 0
v -1 0 0
v 0 0 0
v -1 -1 0
v -2 -1 0
v -2 0 0
v -1 0 0
v -2 -1 0
v -3 -1 0
v -3 0 0
v -2 0 0
v -3 -1 0
v -4 -1 0
v -4 0 0
v -3 0 0
v -4 -1 0
v -5 -1 0
v -5 0 0
v -4 0 0
v -5 -1 0
v -6 -1 0
v -6 0 0
v -5 0 0
v -6 -1 0
v -7 -1 0
v -7 0 0
v -6 0 0
v -7 -1 0
v -8 -1 0
v -8 0 0
v -7 0 0
v -8 -1 0
v -9 -1 0
v -9 0 0
v -8 0 0
v -9 -1 0
v -10 -1 0
v -10 0 0
v -9 0 0
v -10 -1 0
v -11 -1 0
v -11 0 0
v -10 0 0
v -11 -1 0
v -12 -1 0
v -12 0 0
v -11 0 0
v -12 -1 0
v -13 -1 0
v -13 0 0
v -12 0 0
v -13 -1 0
v -14 -1 0
v -14 0 0
v -13 0 0
v -14 -1 0
v -15 -1 0
v -15 0 0
v -14 0 0
v -15 -1 0
v -16 -1 0
v -16 0 0
v -15 0 0
v -16 -1 0
v -17 -1 0
v -17 0 0
v -16 0 0
v -17 -1 0
v -18 -1 0
v -18 0 0
v -17 0 0
v -18 -1 0
v -19 -1 0
v -19 0 0
v -18 0 0
v -19 -1 0
v -20 -1 0
v -20 0 0
v -19 0 0
v -20 -1 0
v -21 -1 0
v -21 0 0
v -20 0 0
v -21 -1 0
v -22 -1 0
v -22 0 0
v -21 0 0
v -22 -1 0
v -23 -1 0
v -23 0 0
v -22 0 0
v -23 -1 0
v -24 -1 0
v -24 0 0
v -23 0 0
v -24 -1 0
v -25 -1 0
v -25 0 0
v -24 0 0
v -25 -1 0
v -26 -1 0
v -26 0 0
v -25 0 0
v -26 -1 0
v -27 -1 0
v -27 0 0
v -26 0 0
v -27 -1 0
v -28 -1 0
v -28 0 0
v -27 0 0
v -28 -1 0
v -29 -1 0
v -29 0 0
v -28 0 0
v -29 -1 0
v -30 -1 0
v -30 0 0
v -29 0 0
v -30 -1 0
v -31 -1 0
v -31 0 0
v -30 0 0
v -31 -1 0
v -32 -1 0
v -32 0 0
v -31 0 0
v -32 -1 0
v -33 -1 0
v -33 0 0
v -32 0 0
v -33 -1 0
v -34 -1 0
v -34 0 0
v -33 0 0
v -34 -1 0
v -35 -1 0
v -35 0 0
v -34 0 0
v -35 -1 0
v -36 -1 0
v -36 0 0
v -35 0 0
v -36 -1 0
v -37 -1 0
v -37 0 0
v -36 0 0
v -37 -1 0
v -38 -1 0
v -38 0 0
v -37 0 0
v -38 -1 0
v -39 -1 0
v -39 0 0
v -38 0 0
v -39 -1 0
v -40 -1 0
v -40 0 0
v -39 0 0
v 0 -2 0
v -1 -2 0
v -1 -1 0
v 0 -1 0
v -39 -2 0
v -40 -2 0
v -40 -1 0
v -39 -1 0
v 0 -3 0
v -1 -3 0
v -1 -2 0
v 0 -2 0
v -39 -3 0
v -40 -3 0
v -40 -2 0
v -39 -2 0
v 0 -4 0
v -1 -4 0
v -1 -3 0
v 0 -3 0
v -39 -4 0
v -40 -4 0
v -40 -3 0
v -39 -3 0
v 0 -5 0
v -1 -5 0
v -1 -4 0
v 0 -4 0
v -39 -5 0
v -40 -5 0
v -40 -4 0
v -39 -4 0
v 0 -6 0
v -1 -6 0
v -1 -5 0
v 0 -5 0
v -39 -6 0
v -40 -6 0
v -40 -5 0
v -39 -5 0
v 0 -7 0
v -1 -7 0
v -1 -6 0
v 0 -6 0
v -39 -7 0
v -40 -7 0
v -40 -6 0
v -39 -6 0
v 0 -8 0
v -1 -8 0
v -1 -7 0
v 0 -7 0
v -39 -8 0
v -40 -8 0
v -40 -7 0
v -39 -7 0
v 0 -9 0
v -1 -9 0
v -1 -8 0
v 0 -8 0
v -39 -9 0
v -40 -9 0
v -40 -8 0
v -39 -8 0
v 0 -10 0
v -1 -10 0
v -1 -9 0
v 0 -9 0
v -39 -10 0
v -40 -10 0
v -40 -9 0
v -39 -9 0
v 0 -11 0
v -1 -11 0
v -1 -10 0
v 0 -10 0
v -39 -11 0
v -40 -11 0
v -40 -10 0
v -39 -10 0
v 0 -12 0
v -1 -12 0
v -1 -11 0
v 0 -11 0
v -39 -12 0
v -40 -12 0
v -40 -11 0
v -39 -11 0
v 0 -13 0
v -1 -13 0
v -1 -12 0
v 0 -12 0
v -39 -13 0
v -40 -13 0
v -40 -12 0
v -39 -12 0
v 0 -14 0
v -1 -14 0
v -1 -13 0
v 0 -13 0
v -39 -14 0
v -40 -14 0
v -40 -13 0
v -39 -13 0
v 0 -15 0
v -1 -15 0
v -1 -14 0
v 0 -14 0
v -39 -15 0
v -40 -15 0
v -40 -14 0
v -39 -14 0
v 0 -16 0
v -1 -16 0
v -1 -15 0
v 0 -15 0
v -39 -16 0
v -40 -16 0
v -40 -15 0
v -39 -15 0
v 0 -17 0
v -1 -17 0
v -1 -16 0
v 0 -16 0
v -39 -17 0
v -40 -17 0
v -40 -16 0
v -39 -16 0
v 0 -18 0
v -1 -18 0
v -1 -17 0
v 0 -17 0
v -39 -18 0
v -40 -18 0
v -40 -17 0
v -39 -17 0
v 0 -19 0
v -1 -19 0
v -1 -18 0
v 0 -18 0
v -39 -19 0
v -40 -19 0
v -40 -18 0
v -39 -18 0
v 0 -20 0
v -1 -20 0
v -1 -19 0
v 0 -19 0
v -39 -20 0
v -40 -20 0
v -40 -19 0
v -39 -19 0
v 0 -21 0
v -1 -21 0
v -1 -20 0
v 0 -20 0
v -39 -21 0
v -40 -21 0
v -40 -20 0
v -39 -20 0
v 0 -22 0
v -1 -22 0
v -1 -21 0
v 0 -21 0
v -39 -22 0
v -40 -22 0
v -40 -21 0
v -39 -21 0
v 0 -23 0
v -1 -23 0
v -1 -22 0
v 0 -22 0
v -39 -23 0
v -40 -23 0
v -40 -22 0
v -39 -22 0
v 0 -24 0
v -1 -24 0
v -1 -23 0
v 0 -23 0
v -39 -24 0
v -40 -24 0
v -40 -23 0
v -39 -23 0
v 0 -25 0
v -1 -25 0
v -1 -24 0
v 0 -24 0
v -39 -25 0
v -40 -25 0
v -40 -24 0
v -39 -24 0
v 0 -26 0
v -1 -26 0
v -1 -25 0
v 0 -25 0
v -39 -26 0
v -40 -26 0
v -40 -25 0
v -39 -25 0
v 0 -27 0
v -1 -27 0
v -1 -26 0
v 0 -26 0
v -39 -27 0
v -40 -27 0
v -40 -26 0
v -39 -26 0
v 0 -28 0
v -1 -28 0
v -1 -27 0
v 0 -27 0
v -39 -28 0
v -40 -28 0
v -40 -27 0
v -39 -27 0
v 0 -29 0
v -1 -29 0
v -1 -28 0
v 0 -28 0
v -39 -29 0
v -40 -29 0
v -40 -28 0
v -39 -28 0
v 0 -30 0
v -1 -30 0
v -1 -29 0
v 0 -29 0
v -39 -30 0
v -40 -30 0
v -40 -29 0
v -39 -29 0
v 0 -31 0
v -1 -31 0
v -1 -30 0
v 0 -30 0
v -39 -31 0
v -40 -31 0
v -40 -30 0
v -39 -30 0
v 0 -32 0
v -1 -32 0
v -1 -31 0
v 0 -31 0
v -39 -32 0
v -40 -32 0
v -40 -31 0
v -39 -31 0
v 0 -33 0
v -1 -33 0
v -1 -32 0
v 0 -32 0
v -39 -33 0
v -40 -33 0
v -40 -32 0
v -39 -32 0
v 0 -34 0
v -1 -34 0
v -1 -33 0
v 0 -33 0
v -39 -34 0
v -40 -34 0
v -40 -33 0
v -39 -33 0
v 0 -35 0
v -1 -35 0
v -1 -34 0
v 0 -34 0
v -39 -35 0
v -40 -35 0
v -40 -34 0
v -39 -34 0
v 0 -36 0
v -1 -36 0
v -1 -35 0
v 0 -35 0
v -39 -36 0
v -40 -36 0
v -40 -35 0
v -39 -35 0
v 0 -37 0
v -1 -37 0
v -1 -36 0
v 0 -36 0
v -39 -37 0
v -40 -37 0
v -40 -36 0
v -39 -36 0
v 0 -38 0
v -1 -38 0
v -1 -37 0
v 0 -37 0
v -39 -38 0
v -40 -38 0
v -40 -37 0
v -39 -37 0
v 0 -39 0
v -1 -39 0
v -1 -38 0
v 0 -38 0
v -39 -39 0
v -40 -39 0
v -40 -38 0
v -39 -38 0
v 0 -40 0
v -1 -40 0
v -1 -39 0
v 0 -39 0
v -1 -40 0
v -2 -40 0
v -2 -39 0
v -1 -39 0
v -2 -40 0
v -3 -40 0
v -3 -39 0
v -2 -39 0
v -3 -40 0
v -4 -40 0
v -4 -39 0
v -3 -39 0
v -4 -40 0
v -5 -40 0
v -5 -39 0
v -4 -39 0
v -5 -40 0
v -6 -40 0
v -6 -39 0
v -5 -39 0
v -13 -40 0
v -14 -40 0
v -14 -39 0
v -13 -39 0
v -14 -40 0
v -15 -40 0
v -15 -39 0
v -14 -39 0
v -15 -40 0
v -16 -40 0
v -16 -39 0
v -15 -39 0
v -16 -40 0
v -17 -40 0
v -17 -39 0
v -16 -39 0
v -17 -40 0
v -18 -40 0
v -18 -39 0
v -17 -39 0
v -18 -40 0
v -19 -40 0
v -19 -39 0
v -18 -39 0
v -19 -40 0
v -20 -40 0
v -20 -39 0
v -19 -39 0
v -20 -40 0
v -21 -40 0
v -21 -39 0
v -20 -39 0
v -21 -40 0
v -22 -40 0
v -22 -39 0
v -21 -39 0
v -22 -40 0
v -23 -40 0
v -23 -39 0
v -22 -39 0
v -23 -40 0
v -24 -40 0
v -24 -39 0
v -23 -39 0
v -24 -40 0
v -25 -40 0
v -25 -39 0
v -24 -39 0
v -25 -40 0
v -26 -40 0
v -26 -39 0
v -25 -39 0
v -26 -40 0
v -27 -40 0
v -27 -39 0
v -26 -39 0
v -27 -40 0
v -28 -40 0
v -28 -39 0
v -27 -39 0
v -28 -40 0
v -29 -40 0
v -29 -39 0
v -28 -39 0
v -29 -40 0
v -30 -40 0
v -30 -39 0
v -29 -39 0
v -30 -40 0
v -31 -40 0
v -31 -39 0
v -30 -39 0
v -31 -40 0
v -32 -40 0
v -32 -39 0
v -31 -39 0
v -32 -40 0
v -33 -40 0
v -33 -39 0
v -32 -39 0
v -33 -40 0
v -34 -40 0
v -34 -39 0
v -33 -39 0
v -34 -40 0
v -35 -40 0
v -35 -39 0
v -34 -39 0
v -35 -40 0
v -36 -40 0
v -36 -39 0
v -35 -39 0
v -36 -40 0
v -37 -40 0
v -37 -39 0
v -36 -39 0
v -37 -40 0
v -38 -40 0
v -38 -39 0
v -37 -39 0
v -38 -40 0
v -39 -40 0
v -39 -39 0
v -38 -39 0
v -39 -40 0
v -40 -40 0
v -40 -39 0
v -39 -39 0

# Texture cooridinates (Count = 14)
vt 0.75 0.9293023
vt 0.875 0.9293023
vt 0.875 0.9330233
vt 0.75 0.9330233
vt 0.875 0.9367442
vt 0.75 0.9367442
vt 1 0.9293023
vt 1 0.9330233
vt 0.625 0.9367442
vt 0.75 0.9404651
vt 0.625 0.9404651
vt 0.75 0.9255814
vt 0.875 0.9255814
vt 1 0.9255814

# Normal
vn 0 0 -1

# Mesh description
g MINIMAPA_mesh_0004

# Faces
f 1/1/1 2/2/1 3/3/1 4/4/1
f 5/4/1 6/3/1 7/5/1 8/6/1
f 9/4/1 10/3/1 11/5/1 12/6/1
f 13/4/1 14/3/1 15/5/1 16/6/1
f 17/4/1 18/3/1 19/5/1 20/6/1
f 21/4/1 22/3/1 23/5/1 24/6/1
f 25/4/1 26/3/1 27/5/1 28/6/1
f 29/4/1 30/3/1 31/5/1 32/6/1
f 33/4/1 34/3/1 35/5/1 36/6/1
f 37/4/1 38/3/1 39/5/1 40/6/1
f 41/4/1 42/3/1 43/5/1 44/6/1
f 45/4/1 46/3/1 47/5/1 48/6/1
f 49/4/1 50/3/1 51/5/1 52/6/1
f 53/4/1 54/3/1 55/5/1 56/6/1
f 57/4/1 58/3/1 59/5/1 60/6/1
f 61/4/1 62/3/1 63/5/1 64/6/1
f 65/4/1 66/3/1 67/5/1 68/6/1
f 69/4/1 70/3/1 71/5/1 72/6/1
f 73/4/1 74/3/1 75/5/1 76/6/1
f 77/4/1 78/3/1 79/5/1 80/6/1
f 81/4/1 82/3/1 83/5/1 84/6/1
f 85/4/1 86/3/1 87/5/1 88/6/1
f 89/4/1 90/3/1 91/5/1 92/6/1
f 93/4/1 94/3/1 95/5/1 96/6/1
f 97/4/1 98/3/1 99/5/1 100/6/1
f 101/4/1 102/3/1 103/5/1 104/6/1
f 105/4/1 106/3/1 107/5/1 108/6/1
f 109/4/1 110/3/1 111/5/1 112/6/1
f 113/4/1 114/3/1 115/5/1 116/6/1
f 117/4/1 118/3/1 119/5/1 120/6/1
f 121/4/1 122/3/1 123/5/1 124/6/1
f 125/4/1 126/3/1 127/5/1 128/6/1
f 129/4/1 130/3/1 131/5/1 132/6/1
f 133/4/1 134/3/1 135/5/1 136/6/1
f 137/4/1 138/3/1 139/5/1 140/6/1
f 141/4/1 142/3/1 143/5/1 144/6/1
f 145/4/1 146/3/1 147/5/1 148/6/1
f 149/4/1 150/3/1 151/5/1 152/6/1
f 153/4/1 154/3/1 155/5/1 156/6/1
f 157/2/1 158/7/1 159/8/1 160/3/1
f 161/9/1 162/6/1 163/10/1 164/11/1
f 165/9/1 166/6/1 167/10/1 168/11/1
f 169/9/1 170/6/1 171/10/1 172/11/1
f 173/9/1 174/6/1 175/10/1 176/11/1
f 177/9/1 178/6/1 179/10/1 180/11/1
f 181/9/1 182/6/1 183/10/1 184/11/1
f 185/9/1 186/6/1 187/10/1 188/11/1
f 189/9/1 190/6/1 191/10/1 192/11/1
f 193/9/1 194/6/1 195/10/1 196/11/1
f 197/9/1 198/6/1 199/10/1 200/11/1
f 201/9/1 202/6/1 203/10/1 204/11/1
f 205/9/1 206/6/1 207/10/1 208/11/1
f 209/9/1 210/6/1 211/10/1 212/11/1
f 213/9/1 214/6/1 215/10/1 216/11/1
f 217/9/1 218/6/1 219/10/1 220/11/1
f 221/9/1 222/6/1 223/10/1 224/11/1
f 225/9/1 226/6/1 227/10/1 228/11/1
f 229/9/1 230/6/1 231/10/1 232/11/1
f 233/9/1 234/6/1 235/10/1 236/11/1
f 237/9/1 238/6/1 239/10/1 240/11/1
f 241/9/1 242/6/1 243/10/1 244/11/1
f 245/9/1 246/6/1 247/10/1 248/11/1
f 249/9/1 250/6/1 251/10/1 252/11/1
f 253/9/1 254/6/1 255/10/1 256/11/1
f 257/9/1 258/6/1 259/10/1 260/11/1
f 261/9/1 262/6/1 263/10/1 264/11/1
f 265/9/1 266/6/1 267/10/1 268/11/1
f 269/9/1 270/6/1 271/10/1 272/11/1
f 273/9/1 274/6/1 275/10/1 276/11/1
f 277/9/1 278/6/1 279/10/1 280/11/1
f 281/9/1 282/6/1 283/10/1 284/11/1
f 285/9/1 286/6/1 287/10/1 288/11/1
f 289/9/1 290/6/1 291/10/1 292/11/1
f 293/9/1 294/6/1 295/10/1 296/11/1
f 297/9/1 298/6/1 299/10/1 300/11/1
f 301/9/1 302/6/1 303/10/1 304/11/1
f 305/9/1 306/6/1 307/10/1 308/11/1
f 309/9/1 310/6/1 311/10/1 312/11/1
f 313/9/1 314/6/1 315/10/1 316/11/1
f 317/9/1 318/6/1 319/10/1 320/11/1
f 321/9/1 322/6/1 323/10/1 324/11/1
f 325/9/1 326/6/1 327/10/1 328/11/1
f 329/9/1 330/6/1 331/10/1 332/11/1
f 333/9/1 334/6/1 335/10/1 336/11/1
f 337/9/1 338/6/1 339/10/1 340/11/1
f 341/9/1 342/6/1 343/10/1 344/11/1
f 345/9/1 346/6/1 347/10/1 348/11/1
f 349/9/1 350/6/1 351/10/1 352/11/1
f 353/9/1 354/6/1 355/10/1 356/11/1
f 357/9/1 358/6/1 359/10/1 360/11/1
f 361/9/1 362/6/1 363/10/1 364/11/1
f 365/9/1 366/6/1 367/10/1 368/11/1
f 369/9/1 370/6/1 371/10/1 372/11/1
f 373/9/1 374/6/1 375/10/1 376/11/1
f 377/9/1 378/6/1 379/10/1 380/11/1
f 381/9/1 382/6/1 383/10/1 384/11/1
f 385/9/1 386/6/1 387/10/1 388/11/1
f 389/9/1 390/6/1 391/10/1 392/11/1
f 393/9/1 394/6/1 395/10/1 396/11/1
f 397/9/1 398/6/1 399/10/1 400/11/1
f 401/9/1 402/6/1 403/10/1 404/11/1
f 405/9/1 406/6/1 407/10/1 408/11/1
f 409/9/1 410/6/1 411/10/1 412/11/1
f 413/9/1 414/6/1 415/10/1 416/11/1
f 417/9/1 418/6/1 419/10/1 420/11/1
f 421/9/1 422/6/1 423/10/1 424/11/1
f 425/9/1 426/6/1 427/10/1 428/11/1
f 429/9/1 430/6/1 431/10/1 432/11/1
f 433/9/1 434/6/1 435/10/1 436/11/1
f 437/9/1 438/6/1 439/10/1 440/11/1
f 441/9/1 442/6/1 443/10/1 444/11/1
f 445/9/1 446/6/1 447/10/1 448/11/1
f 449/9/1 450/6/1 451/10/1 452/11/1
f 453/9/1 454/6/1 455/10/1 456/11/1
f 457/9/1 458/6/1 459/10/1 460/11/1
f 461/9/1 462/6/1 463/10/1 464/11/1
f 465/12/1 466/13/1 467/2/1 468/1/1
f 469/4/1 470/3/1 471/5/1 472/6/1
f 473/4/1 474/3/1 475/5/1 476/6/1
f 477/4/1 478/3/1 479/5/1 480/6/1
f 481/4/1 482/3/1 483/5/1 484/6/1
f 485/4/1 486/3/1 487/5/1 488/6/1
f 489/4/1 490/3/1 491/5/1 492/6/1
f 493/4/1 494/3/1 495/5/1 496/6/1
f 497/4/1 498/3/1 499/5/1 500/6/1
f 501/4/1 502/3/1 503/5/1 504/6/1
f 505/4/1 506/3/1 507/5/1 508/6/1
f 509/4/1 510/3/1 511/5/1 512/6/1
f 513/4/1 514/3/1 515/5/1 516/6/1
f 517/4/1 518/3/1 519/5/1 520/6/1
f 521/4/1 522/3/1 523/5/1 524/6/1
f 525/4/1 526/3/1 527/5/1 528/6/1
f 529/4/1 530/3/1 531/5/1 532/6/1
f 533/4/1 534/3/1 535/5/1 536/6/1
f 537/4/1 538/3/1 539/5/1 540/6/1
f 541/4/1 542/3/1 543/5/1 544/6/1
f 545/4/1 546/3/1 547/5/1 548/6/1
f 549/4/1 550/3/1 551/5/1 552/6/1
f 553/4/1 554/3/1 555/5/1 556/6/1
f 557/4/1 558/3/1 559/5/1 560/6/1
f 561/4/1 562/3/1 563/5/1 564/6/1
f 565/4/1 566/3/1 567/5/1 568/6/1
f 569/4/1 570/3/1 571/5/1 572/6/1
f 573/4/1 574/3/1 575/5/1 576/6/1
f 577/4/1 578/3/1 579/5/1 580/6/1
f 581/4/1 582/3/1 583/5/1 584/6/1
f 585/4/1 586/3/1 587/5/1 588/6/1
f 589/4/1 590/3/1 591/5/1 592/6/1
f 593/13/1 594/14/1 595/7/1 596/2/1

